<svg width="20" height="20" viewBox="0 0 20 20" fill="none" xmlns="http://www.w3.org/2000/svg">
<path fill-rule="evenodd" clip-rule="evenodd" d="M1.25 1.27482C1.25 0.929639 1.25 1.25 1.25 0.625H3.125C3.41441 0.625 3.66597 0.823695 3.733 1.10524L4.2139 3.125H18.75C18.9405 3.125 19.1205 3.21185 19.2391 3.36091C19.3577 3.50996 19.4018 3.70495 19.359 3.89054L17.484 12.0155C17.4186 12.2991 17.166 12.5 16.875 12.5H6.44604L6.74366 13.75H16.875C16.875 14.2054 16.875 14.0748 16.875 14.42C16.875 14.7652 16.875 14.5601 16.875 15H15.625H7.5H6.25C5.96059 15 5.70903 14.8013 5.642 14.5198L5.08876 12.1962C5.05586 12.1413 5.03101 12.0806 5.01601 12.0155L4.07899 7.95515L2.63134 1.875H1.25C1.25 1.25 1.25 1.62 1.25 1.27482ZM7.5 15C6.46447 15 5.625 15.8395 5.625 16.875C5.625 17.9105 6.46447 18.75 7.5 18.75C8.53553 18.75 9.375 17.9105 9.375 16.875C9.375 15.8395 8.53553 15 7.5 15ZM15.625 15C14.5895 15 13.75 15.8395 13.75 16.875C13.75 17.9105 14.5895 18.75 15.625 18.75C16.6605 18.75 17.5 17.9105 17.5 16.875C17.5 15.8395 16.6605 15 15.625 15ZM6.14842 11.25H16.3778L17.9643 4.375H4.53566L5.296 7.66983L6.14842 11.25ZM7.5 16.25C7.15482 16.25 6.875 16.5298 6.875 16.875C6.875 17.2202 7.15482 17.5 7.5 17.5C7.84518 17.5 8.125 17.2202 8.125 16.875C8.125 16.5298 7.84518 16.25 7.5 16.25ZM15.625 16.25C15.2798 16.25 15 16.5298 15 16.875C15 17.2202 15.2798 17.5 15.625 17.5C15.9702 17.5 16.25 17.2202 16.25 16.875C16.25 16.5298 15.9702 16.25 15.625 16.25Z" fill="white"/>
</svg>
