<svg width="249" height="26" viewBox="0 0 249 26" fill="none" xmlns="http://www.w3.org/2000/svg">
<path d="M15.0721 4.16V7.352H9.9121V20H5.7841V7.352H0.600098V4.16H15.0721Z" fill="white"/>
<path d="M16.9563 20V2.912H21.0363V10.184C21.3883 9.384 21.8923 8.784 22.5483 8.384C23.2043 7.968 23.9643 7.76 24.8283 7.76C25.6603 7.76 26.3803 7.92 26.9883 8.24C27.6123 8.56 28.1003 9.032 28.4523 9.656C28.8043 10.28 28.9803 11.064 28.9803 12.008V20H24.9003V13.136C24.9003 12.272 24.7403 11.68 24.4203 11.36C24.1163 11.024 23.7083 10.856 23.1963 10.856C22.8123 10.856 22.4523 10.952 22.1163 11.144C21.7803 11.336 21.5163 11.64 21.3243 12.056C21.1323 12.472 21.0363 13.016 21.0363 13.688V20H16.9563Z" fill="white"/>
<path d="M37.6951 20.24C36.3671 20.24 35.2151 19.992 34.2391 19.496C33.2791 19 32.5351 18.288 32.0071 17.36C31.4791 16.432 31.2151 15.312 31.2151 14C31.2151 12.688 31.4791 11.568 32.0071 10.64C32.5351 9.712 33.2711 9 34.2151 8.504C35.1751 8.008 36.2711 7.76 37.5031 7.76C38.7671 7.76 39.8391 8.008 40.7191 8.504C41.6151 8.984 42.2951 9.656 42.7591 10.52C43.2231 11.368 43.4551 12.344 43.4551 13.448C43.4551 13.736 43.4471 14.024 43.4311 14.312C43.4151 14.6 43.3911 14.84 43.3591 15.032H35.1647L35.1883 12.848H38.6151H39.6059C39.6059 11.888 39.4391 11.896 39.0871 11.384C38.7511 10.872 38.2231 10.616 37.5031 10.616C36.9911 10.616 36.5511 10.736 36.1831 10.976C35.8311 11.216 35.5591 11.592 35.3671 12.104C35.1911 12.616 35.1031 13.272 35.1031 14.072C35.1031 14.856 35.2071 15.496 35.4151 15.992C35.6231 16.472 35.9191 16.824 36.3031 17.048C36.6871 17.256 37.1511 17.36 37.6951 17.36C38.3031 17.36 38.7831 17.24 39.1351 17C39.5031 16.76 39.7751 16.424 39.9511 15.992L43.2151 17.072C42.9911 17.76 42.5991 18.344 42.0391 18.824C41.4951 19.288 40.8391 19.64 40.0711 19.88C39.3191 20.12 38.5271 20.24 37.6951 20.24Z" fill="white"/>
<path d="M66.9327 15.464C66.6287 16.568 66.1407 17.48 65.4687 18.2C64.7967 18.904 63.9967 19.424 63.0687 19.76C62.1407 20.08 61.1167 20.24 59.9967 20.24C58.3967 20.24 57.0127 19.92 55.8447 19.28C54.6767 18.624 53.7807 17.688 53.1567 16.472C52.5327 15.256 52.2207 13.792 52.2207 12.08C52.2207 10.368 52.5327 8.904 53.1567 7.688C53.7807 6.472 54.6767 5.544 55.8447 4.904C57.0127 4.248 58.3887 3.92 59.9727 3.92C61.0767 3.92 62.0927 4.08 63.0207 4.4C63.9487 4.704 64.7327 5.176 65.3727 5.816C66.0127 6.456 66.4687 7.28 66.7407 8.288L63.1167 9.752C62.8927 8.76 62.5247 8.08 62.0127 7.712C61.5167 7.344 60.8847 7.16 60.1167 7.16C59.3647 7.16 58.7087 7.344 58.1487 7.712C57.6047 8.08 57.1807 8.632 56.8767 9.368C56.5887 10.088 56.4447 10.992 56.4447 12.08C56.4447 13.152 56.5807 14.056 56.8527 14.792C57.1247 15.528 57.5327 16.08 58.0767 16.448C58.6367 16.816 59.3247 17 60.1407 17C60.9087 17 61.5567 16.792 62.0847 16.376C62.6287 15.944 62.9967 15.288 63.1887 14.408L66.9327 15.464Z" fill="white"/>
<path d="M74.6527 7.76C75.9167 7.76 77.0207 8.008 77.9647 8.504C78.9247 8.984 79.6687 9.696 80.1967 10.64C80.7407 11.568 81.0127 12.688 81.0127 14C81.0127 15.312 80.7407 16.44 80.1967 17.384C79.6687 18.312 78.9247 19.024 77.9647 19.52C77.0207 20 75.9167 20.24 74.6527 20.24C73.4207 20.24 72.3247 20 71.3647 19.52C70.4047 19.024 69.6527 18.312 69.1087 17.384C68.5807 16.44 68.3167 15.312 68.3167 14C68.3167 12.688 68.5807 11.568 69.1087 10.64C69.6527 9.696 70.4047 8.984 71.3647 8.504C72.3247 8.008 73.4207 7.76 74.6527 7.76ZM74.6527 10.664C74.1887 10.664 73.7887 10.776 73.4527 11C73.1167 11.224 72.8607 11.584 72.6847 12.08C72.5087 12.576 72.4207 13.216 72.4207 14C72.4207 14.784 72.5087 15.424 72.6847 15.92C72.8607 16.4 73.1167 16.76 73.4527 17C73.7887 17.224 74.1887 17.336 74.6527 17.336C75.1327 17.336 75.5407 17.224 75.8767 17C76.2127 16.76 76.4687 16.4 76.6447 15.92C76.8207 15.424 76.9087 14.784 76.9087 14C76.9087 13.216 76.8207 12.576 76.6447 12.08C76.4687 11.584 76.2127 11.224 75.8767 11C75.5407 10.776 75.1327 10.664 74.6527 10.664Z" fill="white"/>
<path d="M88.3478 20.24C87.1479 20.24 86.0278 20.048 84.9878 19.664C83.9638 19.264 83.1158 18.696 82.4438 17.96L84.3638 15.704C84.7638 16.216 85.2918 16.648 85.9478 17C86.6198 17.336 87.3638 17.504 88.1798 17.504C88.6758 17.504 89.0838 17.432 89.4038 17.288C89.7238 17.144 89.8839 16.92 89.8839 16.616C89.8839 16.392 89.8038 16.216 89.6438 16.088C89.4838 15.944 89.1638 15.824 88.6838 15.728L87.0038 15.392C85.4998 15.088 84.4278 14.64 83.7878 14.048C83.1638 13.44 82.8518 12.648 82.8518 11.672C82.8518 11.016 83.0518 10.392 83.4519 9.8C83.8519 9.192 84.4678 8.704 85.2999 8.336C86.1319 7.952 87.1958 7.76 88.4918 7.76C89.7078 7.76 90.7798 7.936 91.7078 8.288C92.6358 8.64 93.3718 9.152 93.9158 9.824L91.9718 12.032C91.5878 11.552 91.0919 11.176 90.4838 10.904C89.8758 10.632 89.2679 10.496 88.6599 10.496C88.2758 10.496 87.9479 10.536 87.6758 10.616C87.4199 10.68 87.2278 10.776 87.0998 10.904C86.9718 11.032 86.9078 11.192 86.9078 11.384C86.9078 11.592 87.0038 11.776 87.1958 11.936C87.4038 12.08 87.7798 12.208 88.3238 12.32L90.5079 12.752C91.7399 12.976 92.6279 13.384 93.1719 13.976C93.7159 14.568 93.9878 15.28 93.9878 16.112C93.9878 16.896 93.7798 17.6 93.3638 18.224C92.9478 18.848 92.3238 19.344 91.4918 19.712C90.6598 20.064 89.6118 20.24 88.3478 20.24Z" fill="white"/>
<path d="M96.1047 20V8H99.7527L99.8727 10.328C100.257 9.48 100.793 8.84 101.481 8.408C102.185 7.976 102.993 7.76 103.905 7.76C104.801 7.76 105.577 7.96 106.233 8.36C106.889 8.76 107.377 9.352 107.697 10.136C107.953 9.608 108.281 9.168 108.681 8.816C109.097 8.464 109.569 8.2 110.097 8.024C110.625 7.848 111.169 7.76 111.729 7.76C112.529 7.76 113.233 7.92 113.841 8.24C114.449 8.544 114.929 9.016 115.281 9.656C115.649 10.28 115.833 11.064 115.833 12.008V20H111.753V12.944C111.753 12.176 111.601 11.64 111.297 11.336C111.009 11.032 110.617 10.88 110.121 10.88C109.721 10.88 109.353 10.984 109.017 11.192C108.697 11.384 108.449 11.68 108.273 12.08C108.097 12.48 108.009 12.984 108.009 13.592V20H103.929V12.944C103.929 12.176 103.777 11.64 103.473 11.336C103.169 11.032 102.777 10.88 102.297 10.88C101.929 10.88 101.577 10.976 101.241 11.168C100.921 11.36 100.665 11.664 100.473 12.08C100.281 12.48 100.185 13.008 100.185 13.664V20H96.1047Z" fill="white"/>
<path d="M120.738 6.608C119.906 6.608 119.298 6.456 118.914 6.152C118.546 5.832 118.362 5.336 118.362 4.664C118.362 3.976 118.546 3.48 118.914 3.176C119.298 2.856 119.906 2.696 120.738 2.696C121.554 2.696 122.154 2.856 122.538 3.176C122.922 3.48 123.114 3.976 123.114 4.664C123.114 5.336 122.922 5.832 122.538 6.152C122.154 6.456 121.554 6.608 120.738 6.608ZM122.778 8V20H118.698V8H122.778Z" fill="white"/>
<path d="M131.371 7.76C132.587 7.76 133.595 7.936 134.395 8.288C135.211 8.624 135.843 9.08 136.291 9.656C136.755 10.216 137.043 10.824 137.155 11.48L133.387 12.728C133.275 12.04 133.067 11.528 132.763 11.192C132.475 10.84 132.051 10.664 131.491 10.664C130.979 10.664 130.547 10.784 130.195 11.024C129.859 11.248 129.603 11.616 129.427 12.128C129.251 12.624 129.163 13.264 129.163 14.048C129.163 14.832 129.259 15.472 129.451 15.968C129.643 16.448 129.915 16.8 130.267 17.024C130.619 17.232 131.035 17.336 131.515 17.336C131.915 17.336 132.243 17.264 132.499 17.12C132.771 16.96 132.995 16.736 133.171 16.448C133.347 16.16 133.459 15.808 133.507 15.392L137.179 16.568C137.067 17.272 136.763 17.904 136.267 18.464C135.787 19.008 135.147 19.44 134.347 19.76C133.547 20.08 132.611 20.24 131.539 20.24C130.227 20.24 129.083 20 128.107 19.52C127.131 19.024 126.379 18.312 125.851 17.384C125.323 16.44 125.059 15.312 125.059 14C125.059 12.688 125.323 11.568 125.851 10.64C126.379 9.696 127.115 8.984 128.059 8.504C129.019 8.008 130.123 7.76 131.371 7.76Z" fill="white"/>
<path d="M153.175 4.16C155.655 4.16 157.551 4.848 158.863 6.224C160.191 7.6 160.855 9.552 160.855 12.08C160.855 14.608 160.191 16.56 158.863 17.936C157.551 19.312 155.655 20 153.175 20H146.455V4.16H153.175ZM152.767 16.88C154.111 16.88 155.087 16.48 155.695 15.68C156.319 14.864 156.631 13.664 156.631 12.08C156.631 10.496 156.319 9.304 155.695 8.504C155.087 7.688 154.111 7.28 152.767 7.28H150.583V16.88H152.767Z" fill="white"/>
<path d="M169.106 7.76C170.37 7.76 171.474 8.008 172.418 8.504C173.378 8.984 174.122 9.696 174.65 10.64C175.194 11.568 175.466 12.688 175.466 14C175.466 15.312 175.194 16.44 174.65 17.384C174.122 18.312 173.378 19.024 172.418 19.52C171.474 20 170.37 20.24 169.106 20.24C167.874 20.24 166.778 20 165.818 19.52C164.858 19.024 164.106 18.312 163.562 17.384C163.034 16.44 162.77 15.312 162.77 14C162.77 12.688 163.034 11.568 163.562 10.64C164.106 9.696 164.858 8.984 165.818 8.504C166.778 8.008 167.874 7.76 169.106 7.76ZM169.106 10.664C168.642 10.664 168.242 10.776 167.906 11C167.57 11.224 167.314 11.584 167.138 12.08C166.962 12.576 166.874 13.216 166.874 14C166.874 14.784 166.962 15.424 167.138 15.92C167.314 16.4 167.57 16.76 167.906 17C168.242 17.224 168.642 17.336 169.106 17.336C169.586 17.336 169.994 17.224 170.33 17C170.666 16.76 170.922 16.4 171.098 15.92C171.274 15.424 171.362 14.784 171.362 14C171.362 13.216 171.274 12.576 171.098 12.08C170.922 11.584 170.666 11.224 170.33 11C169.994 10.776 169.586 10.664 169.106 10.664Z" fill="white"/>
<path d="M181.793 2.912V15.92C181.793 16.448 181.881 16.824 182.057 17.048C182.233 17.272 182.529 17.384 182.945 17.384C183.185 17.384 183.385 17.368 183.545 17.336C183.705 17.304 183.897 17.256 184.121 17.192L183.857 19.64C183.569 19.816 183.193 19.96 182.729 20.072C182.265 20.184 181.809 20.24 181.361 20.24C180.081 20.24 179.153 19.944 178.577 19.352C178.001 18.76 177.713 17.792 177.713 16.448V2.912H181.793Z" fill="white"/>
<path d="M185.613 25.04V8H189.285L189.501 12.344L189.021 11.84C189.133 11.04 189.381 10.336 189.765 9.728C190.149 9.12 190.645 8.64 191.253 8.288C191.861 7.936 192.557 7.76 193.341 7.76C194.333 7.76 195.197 8.008 195.933 8.504C196.669 8.984 197.237 9.688 197.637 10.616C198.053 11.528 198.261 12.64 198.261 13.952C198.261 15.264 198.053 16.392 197.637 17.336C197.221 18.28 196.637 19 195.885 19.496C195.149 19.992 194.285 20.24 193.293 20.24C192.205 20.24 191.325 19.92 190.653 19.28C189.981 18.624 189.533 17.8 189.309 16.808L189.693 16.232V25.04H185.613ZM191.901 17.24C192.605 17.24 193.157 16.984 193.557 16.472C193.957 15.944 194.157 15.12 194.157 14C194.157 12.88 193.957 12.064 193.557 11.552C193.173 11.024 192.629 10.76 191.925 10.76C191.477 10.76 191.085 10.888 190.749 11.144C190.413 11.384 190.149 11.744 189.957 12.224C189.781 12.704 189.693 13.296 189.693 14C189.693 14.672 189.773 15.256 189.933 15.752C190.109 16.232 190.365 16.6 190.701 16.856C191.037 17.112 191.437 17.24 191.901 17.24Z" fill="white"/>
<path d="M200.659 20V2.912H204.739V10.184C205.091 9.384 205.595 8.784 206.251 8.384C206.907 7.968 207.667 7.76 208.531 7.76C209.363 7.76 210.083 7.92 210.691 8.24C211.315 8.56 211.803 9.032 212.155 9.656C212.507 10.28 212.683 11.064 212.683 12.008V20H208.603V13.136C208.603 12.272 208.443 11.68 208.123 11.36C207.819 11.024 207.411 10.856 206.899 10.856C206.515 10.856 206.155 10.952 205.819 11.144C205.483 11.336 205.219 11.64 205.027 12.056C204.835 12.472 204.739 13.016 204.739 13.688V20H200.659Z" fill="white"/>
<path d="M217.582 6.608C216.75 6.608 216.142 6.456 215.758 6.152C215.39 5.832 215.206 5.336 215.206 4.664C215.206 3.976 215.39 3.48 215.758 3.176C216.142 2.856 216.75 2.696 217.582 2.696C218.398 2.696 218.998 2.856 219.382 3.176C219.766 3.48 219.958 3.976 219.958 4.664C219.958 5.336 219.766 5.832 219.382 6.152C218.998 6.456 218.398 6.608 217.582 6.608ZM219.622 8V20H215.542V8H219.622Z" fill="white"/>
<path d="M222.527 20V8H226.175L226.391 12.128L225.935 11.672C226.095 10.808 226.375 10.088 226.775 9.512C227.191 8.936 227.703 8.504 228.311 8.216C228.935 7.912 229.631 7.76 230.399 7.76C231.231 7.76 231.951 7.92 232.559 8.24C233.183 8.56 233.671 9.032 234.023 9.656C234.375 10.28 234.551 11.064 234.551 12.008V20H230.471V13.088C230.471 12.256 230.311 11.68 229.991 11.36C229.671 11.04 229.263 10.88 228.767 10.88C228.383 10.88 228.023 10.976 227.687 11.168C227.351 11.344 227.087 11.632 226.895 12.032C226.703 12.432 226.607 12.968 226.607 13.64V20H222.527Z" fill="white"/>
<path d="M242.449 20.24C241.249 20.24 240.129 20.048 239.089 19.664C238.065 19.264 237.217 18.696 236.545 17.96L238.465 15.704C238.865 16.216 239.393 16.648 240.049 17C240.721 17.336 241.465 17.504 242.281 17.504C242.777 17.504 243.185 17.432 243.505 17.288C243.825 17.144 243.985 16.92 243.985 16.616C243.985 16.392 243.905 16.216 243.745 16.088C243.585 15.944 243.265 15.824 242.785 15.728L241.105 15.392C239.601 15.088 238.529 14.64 237.889 14.048C237.265 13.44 236.953 12.648 236.953 11.672C236.953 11.016 237.153 10.392 237.553 9.8C237.953 9.192 238.569 8.704 239.401 8.336C240.233 7.952 241.297 7.76 242.593 7.76C243.809 7.76 244.881 7.936 245.809 8.288C246.737 8.64 247.473 9.152 248.017 9.824L246.073 12.032C245.689 11.552 245.193 11.176 244.585 10.904C243.977 10.632 243.369 10.496 242.761 10.496C242.377 10.496 242.049 10.536 241.777 10.616C241.521 10.68 241.329 10.776 241.201 10.904C241.073 11.032 241.009 11.192 241.009 11.384C241.009 11.592 241.105 11.776 241.297 11.936C241.505 12.08 241.881 12.208 242.425 12.32L244.609 12.752C245.841 12.976 246.729 13.384 247.273 13.976C247.817 14.568 248.089 15.28 248.089 16.112C248.089 16.896 247.881 17.6 247.465 18.224C247.049 18.848 246.425 19.344 245.593 19.712C244.761 20.064 243.713 20.24 242.449 20.24Z" fill="white"/>
</svg>
