<svg width="335" height="636" viewBox="0 0 335 636" fill="none" xmlns="http://www.w3.org/2000/svg">
<path d="M335 636V0H297H254L260 6H297L302.75 15H320L329 24.9474V285.495L323 300.261V600.522L312 612L302.625 621H243.25L234.041 628H5.5L0 632V636H335Z" fill="white" fill-opacity="0.3"/>
<path fill-rule="evenodd" clip-rule="evenodd" d="M329 37.9474V25L320 15H302.54L297 6H260L254 0H335V636H0V632L5.5 628H234.041L243.25 621H302.625L312 612L323 600.522V300.261L329 285.495V37.9474ZM324 600.924V336.769L330 322V37.5621V24.5L320.452 14H303L297.476 5H260.5L255.403 0H335V636H1V632.509L5.82513 629H296.359L303 622H303.027L312.693 612.721L312.708 612.707L324 600.924Z" fill="white"/>
</svg>
