<svg width="335" height="636" viewBox="0 0 335 636" fill="none" xmlns="http://www.w3.org/2000/svg">
<path d="M0 636V0H312V16L302.25 28H15L6 37.9474V285.495L12 300.261V600.522L23 612L32.375 621H91.75L100.959 628H329.5L335 632V636H0Z" fill="white" fill-opacity="0.3"/>
<path fill-rule="evenodd" clip-rule="evenodd" d="M6 37.9474L15 28H302.25L312 16V0H0V636H335V632L329.5 628H100.959L91.75 621H32.375L23 612L12 600.522V300.261L6 285.495V37.9474ZM11 600.924V336.769L5 322V37.5621L14.5562 27H301.774L311 15.6449V0H0V636H334V632.509L329.175 629H38.6406L32 622H31.9727L22.3075 612.721L22.2924 612.707L11 600.924Z" fill="white"/>
</svg>
