<svg width="160" height="56" viewBox="0 0 160 56" fill="none" xmlns="http://www.w3.org/2000/svg">
<path d="M2.12295 8.37135L1.81148 8.63299L2.12295 8.37135ZM2.12295 8.37135V8.4H2.62295C2.12295 8.4 2.12295 8.40011 2.12295 8.40033V8.40133V8.40298V8.40529V8.40826V8.41189V8.41617V8.4211V8.42668V8.43291V8.43978V8.4473V8.45546V8.46427V8.47371V8.48379V8.49451V8.50586V8.51784V8.53045V8.54369V8.55756V8.57206V8.58717V8.60291V8.61927V8.63625V8.65384V8.67205V8.69087V8.7103V8.73035V8.75099V8.77225V8.79411V8.81657V8.83963V8.86329V8.88755V8.9124V8.93785V8.96389V8.99052V9.01773V9.04554V9.07393V9.1029V9.13245V9.16258V9.19329V9.22457V9.25643V9.28886V9.32186V9.35543V9.38957V9.42427V9.45954V9.49537V9.53176V9.5687V9.60621V9.64426V9.68287V9.72204V9.76175V9.80201V9.84281V9.88416V9.92605V9.96848V10.0115V10.055V10.099V10.1436V10.1887V10.2343V10.2805V10.3272V10.3744V10.4221V10.4704V10.5192V10.5685V10.6183V10.6686V10.7195V10.7708V10.8227V10.8751V10.9279V10.9813V11.0352V11.0896V11.1444V11.1998V11.2557V11.3121V11.3689V11.4263V11.4841V11.5424V11.6012V11.6605V11.7202V11.7805V11.8412V11.9024V11.9641V12.0262V12.0888V12.1519V12.2154V12.2795V12.3439V12.4089V12.4743V12.5401V12.6064V12.6732V12.7404V12.8081V12.8762V12.9447V13.0138V13.0832V13.1531V13.2234V13.2942V13.3654V13.437V13.5091V13.5816V13.6546V13.7279V13.8017V13.8759V13.9506V14.0256V14.1011V14.177V14.2533V14.33V14.4072V14.4847V14.5627V14.641V14.7198V14.799V14.8785V14.9585V15.0389V15.1196V15.2008V15.2823V15.3643V15.4466V15.5293V15.6124V15.6959V15.7798V15.864V15.9487V16.0337V16.1191V16.2048V16.2909V16.3774V16.4643V16.5515V16.6391V16.7271V16.8154V16.904V16.9931V17.0825V17.1722V17.2623V17.3527V17.4435V17.5347V17.6261V17.718V17.8101V17.9026V17.9955V18.0887V18.1822V18.276V18.3702V18.4647V18.5596V18.6547V18.7502V18.846V18.9421V19.0386V19.1353V19.2324V19.3298V19.4275V19.5255V19.6238V19.7225V19.8214V19.9206V20.0202V20.12V20.2201V20.3205V20.4213V20.5223V20.6236V20.7252V20.827V20.9292V21.0316V21.1344V21.2374V21.3407V21.4442V21.5481V21.6522V21.7565V21.8612V21.9661V22.0713V22.1767V22.2824V22.3884V22.4946V22.6011V22.7078V22.8148V22.9221V23.0296V23.1373V23.2453V23.3535V23.462V23.5707V23.6797V23.7889V23.8983V24.0079V24.1178V24.228V24.3383V24.4489V24.5597V24.6707V24.782V24.8934V25.0051V25.117V25.2291V25.3415V25.454V25.5668V25.6797V25.7929V25.9062V26.0198V26.1336V26.2476V26.3617V26.4761V26.5906V26.7054V26.8203V26.9354V27.0507V27.1662V27.2819V27.3978V27.5138V27.63V27.7464V27.863V27.9797V28.0966V28.2137V28.3309V28.4483V28.5659V28.6836V28.8015V28.9196V29.0378V29.1561V29.2747V29.3933V29.5121V29.6311V29.7502V29.8695V29.9888V30.1084V30.2281V30.3479V30.4678V30.5879V30.7081V30.8284V30.9489V31.0695V31.1902V31.3111V31.432V31.5531V31.6743V31.7956V31.917V32.0386V32.1602V32.282V32.4039V32.5258V32.6479V32.7701V32.8924V33.0147V33.1372V33.2598V33.3824V33.5052V33.628V33.751V33.874V33.9971V34.1202V34.2435V34.3668V34.4903V34.6138V34.7373V34.861V34.9847V35.1084V35.2323V35.3562V35.4802V35.6042V35.7283V35.8524V35.9766V36.1009V36.2252V36.3495V36.474V36.5984V36.7229V36.8475V36.972V37.0967V37.2213V37.346V37.4708V37.5955V37.7203V37.8452V37.97V38.0949V38.2198V38.3447V38.4697V38.5947V38.7196V38.8446V38.9697V39.0947V39.2197V39.3448V39.4698V39.5949V39.7199V39.845V39.97V40.0951V40.2201V40.3452V40.4702V40.5953V40.7203V40.8453V40.9703V41.0953V41.2202V41.3451V41.4701V41.595V41.7198V41.8447V41.9695V42.0942V42.219V42.3437V42.4684V42.593V42.7176V42.8422V42.9667V43.0912V43.2156V43.34V43.4643V43.5886V43.7128V43.837V43.9611V44.0851V44.2091V44.333V44.4569V44.5807V44.7044V44.8281V44.9517V45.0752V45.1987V45.322V45.4453V45.5685V45.6916V45.8147V45.9377V46.0605V46.1833V46.306V46.4286V46.5511V46.6735V46.7958V46.918V47.0402V47.1622V47.2841V47.4059V47.5276V47.6491V47.7706V47.892V48.0132V48.1343V48.2553V48.3762V48.497V48.6176V48.7381V48.8585V48.9788V49.0989V49.2189V49.3388V49.4585V49.5781V49.6975V49.8168V49.936V50.055V50.1738V50.2926V50.4111V50.5295V50.6478V50.7659V50.8839V51.0017V51.1193V51.2367V51.354V51.4712V51.5882V51.7049V51.8216V51.938V52.0543V52.1704V52.2863V52.4021V52.5176V52.633V52.7482V52.8632V52.978V53.0926V53.2071V53.3213V53.4353V53.5492V53.6628V53.7762V53.8895V54.0025V54.1153V54.228V54.3404V54.4526V54.5645V54.6763V54.7878V54.8992V55.0103V55.1212V55.2318V55.3423V55.4525V55.5V8.37135ZM3.43443 8.37135L3.12295 8.63299V8.63625V8.65384V8.67205V8.69087V8.7103V8.73035V8.75099V8.77225V8.79411V8.81657V8.83963V8.86329V8.88755V8.9124V8.93785V8.96389V8.99052V9.01773V9.04554V9.07393V9.1029V9.13245V9.16258V9.19329V9.22457V9.25643V9.28886V9.32186V9.35543V9.38957V9.42427V9.45954V9.49537V9.53176V9.5687V9.60621V9.64426V9.68287V9.72204V9.76175V9.80201V9.84281V9.88416V9.92605V9.96848V10.0115V10.055V10.099V10.1436V10.1887V10.2343V10.2805V10.3272V10.3744V10.4221V10.4704V10.5192V10.5685V10.6183V10.6686V10.7195V10.7708V10.8227V10.8751V10.9279V10.9813V11.0352V11.0896V11.1444V11.1998V11.2557V11.3121V11.3689V11.4263V11.4841V11.5424V11.6012V11.6605V11.7202V11.7805V11.8412V11.9024V11.9641V12.0262V12.0888V12.1519V12.2154V12.2795V12.3439V12.4089V12.4743V12.5401V12.6064V12.6732V12.7404V12.8081V12.8762V12.9447V13.0138V13.0832V13.1531V13.2234V13.2942V13.3654V13.437V13.5091V13.5816V13.6546V13.7279V13.8017V13.8759V13.9506V14.0256V14.1011V14.177V14.2533V14.33V14.4072V14.4847V14.5627V14.641V14.7198V14.799V14.8785V14.9585V15.0389V15.1196V15.2008V15.2823V15.3643V15.4466V15.5293V15.6124V15.6959V15.7798V15.864V15.9487V16.0337V16.1191V16.2048V16.2909V16.3774V16.4643V16.5515V16.6391V16.7271V16.8154V16.904V16.9931V17.0825V17.1722V17.2623V17.3527V17.4435V17.5347V17.6261V17.718V17.8101V17.9026V17.9955V18.0887V18.1822V18.276V18.3702V18.4647V18.5596V18.6547V18.7502V18.846V18.9421V19.0386V19.1353V19.2324V19.3298V19.4275V19.5255V19.6238V19.7225V19.8214V19.9206V20.0202V20.12V20.2201V20.3205V20.4213V20.5223V20.6236V20.7252V20.827V20.9292V21.0316V21.1344V21.2374V21.3407V21.4442V21.5481V21.6522V21.7565V21.8612V21.9661V22.0713V22.1767V22.2824V22.3884V22.4946V22.6011V22.7078V22.8148V22.9221V23.0296V23.1373V23.2453V23.3535V23.462V23.5707V23.6797V23.7889V23.8983V24.0079V24.1178V24.228V24.3383V24.4489V24.5597V24.6707V24.782V24.8934V25.0051V25.117V25.2291V25.3415V25.454V25.5668V25.6797V25.7929V25.9062V26.0198V26.1336V26.2476V26.3617V26.4761V26.5906V26.7054V26.8203V26.9354V27.0507V27.1662V27.2819V27.3978V27.5138V27.63V27.7464V27.863V27.9797V28.0966V28.2137V28.3309V28.4483V28.5659V28.6836V28.8015V28.9196V29.0378V29.1561V29.2747V29.3933V29.5121V29.6311V29.7502V29.8695V29.9888V30.1084V30.2281V30.3479V30.4678V30.5879V30.7081V30.8284V30.9489V31.0695V31.1902V31.3111V31.432V31.5531V31.6743V31.7956V31.917V32.0386V32.1602V32.282V32.4039V32.5258V32.6479V32.7701V32.8924V33.0147V33.1372V33.2598V33.3824V33.5052V33.628V33.751V33.874V33.9971V34.1202V34.2435V34.3668V34.4903V34.6138V34.7373V34.861V34.9847V35.1084V35.2323V35.3562V35.4802V35.6042V35.7283V35.8524V35.9766V36.1009V36.2252V36.3495V36.474V36.5984V36.7229V36.8475V36.972V37.0967V37.2213V37.346V37.4708V37.5955V37.7203V37.8452V37.97V38.0949V38.2198V38.3447V38.4697V38.5947V38.7196V38.8446V38.9697V39.0947V39.2197V39.3448V39.4698V39.5949V39.7199V39.845V39.97V40.0951V40.2201V40.3452V40.4702V40.5953V40.7203V40.8453V40.9703V41.0953V41.2202V41.3451V41.4701V41.595V41.7198V41.8447V41.9695V42.0942V42.219V42.3437V42.4684V42.593V42.7176V42.8422V42.9667V43.0912V43.2156V43.34V43.4643V43.5886V43.7128V43.837V43.9611V44.0851V44.2091V44.333V44.4569V44.5807V44.7044V44.8281V44.9517V45.0752V45.1987V45.322V45.4453V45.5685V45.6916V45.8147V45.9377V46.0605V46.1833V46.306V46.4286V46.5511V46.6735V46.7958V46.918V47.0402V47.1622V47.2841V47.4059V47.5276V47.6491V47.7706V47.892V48.0132V48.1343V48.2553V48.3762V48.497V48.6176V48.7381V48.8585V48.9788V49.0989V49.2189V49.3388V49.4585V49.5781V49.6975V49.8168V49.936V50.055V50.1738V50.2926V50.4111V50.5295V50.6478V50.7659V50.8839V51.0017V51.1193V51.2367V51.354V51.4712V51.5882V51.7049V51.8216V51.938V52.0543V52.1704V52.2863V52.4021V52.5176V52.633V52.7482V52.8632V52.978V53.0926V53.2071V53.3213V53.4353V53.5492V53.6628V53.7762V53.8895V54.0025V54.1153V54.228V54.3404V54.4526V54.5645V54.6763V54.7878V54.8992V55.0103V55.1212V55.2318V55.3423V55.4525V55.5624V55.6722V55.7817V55.891L3.43443 8.37135ZM3.43443 8.37135V8.4H3.93443C3.43443 8.4 3.43443 8.40011 3.43443 8.40033V8.40133V8.40298V8.40529V8.40826V8.41189V8.41617V8.4211V8.42668V8.43291V8.43978V8.4473V8.45546V8.46427V8.47371V8.48379V8.49451V8.50586V8.51784V8.53045V8.54369V8.55756V8.57206V8.58717V8.60291V8.61927V8.63625V8.65384V8.67205V8.69087V8.7103V8.73035V8.75099V8.77225V8.79411V8.81657V8.83963V8.86329V8.88755V8.9124V8.93785V8.96389V8.99052V9.01773V9.04554V9.07393V9.1029V9.13245V9.16258V9.19329V9.22457V9.25643V9.28886V9.32186V9.35543V9.38957V9.42427V9.45954V9.49537V9.53176V9.5687V9.60621V9.64426V9.68287V9.72204V9.76175V9.80201V9.84281V9.88416V9.92605V9.96848V10.0115V10.055V10.099V10.1436V10.1887V10.2343V10.2805V10.3272V10.3744V10.4221V10.4704V10.5192V10.5685V10.6183V10.6686V10.7195V10.7708V10.8227V10.8751V10.9279V10.9813V11.0352V11.0896V11.1444V11.1998V11.2557V11.3121V11.3689V11.4263V11.4841V11.5424V11.6012V11.6605V11.7202V11.7805V11.8412V11.9024V11.9641V12.0262V12.0888V12.1519V12.2154V12.2795V12.3439V12.4089V12.4743V12.5401V12.6064V12.6732V12.7404V12.8081V12.8762V12.9447V13.0138V13.0832V13.1531V13.2234V13.2942V13.3654V13.437V13.5091V13.5816V13.6546V13.7279V13.8017V13.8759V13.9506V14.0256V14.1011V14.177V14.2533V14.33V14.4072V14.4847V14.5627V14.641V14.7198V14.799V14.8785V14.9585V15.0389V15.1196V15.2008V15.2823V15.3643V15.4466V15.5293V15.6124V15.6959V15.7798V15.864V15.9487V16.0337V16.1191V16.2048V16.2909V16.3774V16.4643V16.5515V16.6391V16.7271V16.8154V16.904V16.9931V17.0825V17.1722V17.2623V17.3527V17.4435V17.5347V17.6261V17.718V17.8101V17.9026V17.9955V18.0887V18.1822V18.276V18.3702V18.4647V18.5596V18.6547V18.7502V18.846V18.9421V19.0386V19.1353V19.2324V19.3298V19.4275V19.5255V19.6238V19.7225V19.8214V19.9206V20.0202V20.12V20.2201V20.3205V20.4213V20.5223V20.6236V20.7252V20.827V20.9292V21.0316V21.1344V21.2374V21.3407V21.4442V21.5481V21.6522V21.7565V21.8612V21.9661V22.0713V22.1767V22.2824V22.3884V22.4946V22.6011V22.7078V22.8148V22.9221V23.0296V23.1373V23.2453V23.3535V23.462V23.5707V23.6797V23.7889V23.8983V24.0079V24.1178V24.228V24.3383V24.4489V24.5597V24.6707V24.782V24.8934V25.0051V25.117V25.2291V25.3415V25.454V25.5668V25.6797V25.7929V25.9062V26.0198V26.1336V26.2476V26.3617V26.4761V26.5906V26.7054V26.8203V26.9354V27.0507V27.1662V27.2819V27.3978V27.5138V27.63V27.7464V27.863V27.9797V28.0966V28.2137V28.3309V28.4483V28.5659V28.6836V28.8015V28.9196V29.0378V29.1561V29.2747V29.3933V29.5121V29.6311V29.7502V29.8695V29.9888V30.1084V30.2281V30.3479V30.4678V30.5879V30.7081V30.8284V30.9489V31.0695V31.1902V31.3111V31.432V31.5531V31.6743V31.7956V31.917V32.0386V32.1602V32.282V32.4039V32.5258V32.6479V32.7701V32.8924V33.0147V33.1372V33.2598V33.3824V33.5052V33.628V33.751V33.874V33.9971V34.1202V34.2435V34.3668V34.4903V34.6138V34.7373V34.861V34.9847V35.1084V35.2323V35.3562V35.4802V35.6042V35.7283V35.8524V35.9766V36.1009V36.2252V36.3495V36.474V36.5984V36.7229V36.8475V36.972V37.0967V37.2213V37.346V37.4708V37.5955V37.7203V37.8452V37.97V38.0949V38.2198V38.3447V38.4697V38.5947V38.7196V38.8446V38.9697V39.0947V39.2197V39.3448V39.4698V39.5949V39.7199V39.845V39.97V40.0951V40.2201V40.3452V40.4702V40.5953V40.7203V40.8453V40.9703V41.0953V41.2202V41.3451V41.4701V41.595V41.7198V41.8447V41.9695V42.0942V42.219V42.3437V42.4684V42.593V42.7176V42.8422V42.9667V43.0912V43.2156V43.34V43.4643V43.5886V43.7128V43.837V43.9611V44.0851V44.2091V44.333V44.4569V44.5807V44.7044V44.8281V44.9517V45.0752V45.1987V45.322V45.4453V45.5685V45.6916V45.8147V45.9377V46.0605V46.1833V46.306V46.4286V46.5511V46.6735V46.7958V46.918V47.0402V47.1622V47.2841V47.4059V47.5276V47.6491V47.7706V47.892V48.0132V48.1343V48.2553V48.3762V48.497V48.6176V48.7381V48.8585V48.9788V49.0989V49.2189V49.3388V49.4585V49.5781V49.6975V49.8168V49.936V50.055V50.1738V50.2926V50.4111V50.5295V50.6478V50.7659V50.8839V51.0017V51.1193V51.2367V51.354V51.4712V51.5882V51.7049V51.8216V51.938V52.0543V52.1704V52.2863V52.4021V52.5176V52.633V52.7482V52.8632V52.978V53.0926V53.2071V53.3213V53.4353V53.5492V53.6628V53.7762V53.8895V54.0025V54.1153V54.228V54.3404V54.4526V54.5645V54.6763V54.7878V54.8992V55.0103V55.1212V55.2318V55.3423V55.4525V8.37135ZM7.05738 55.5V55.4525V55.3423V55.2318V55.1212V55.0103V54.8992V54.7878V54.6763V54.5645V54.4526V54.3404V54.228V54.1153V54.0025V53.8895V53.7762V53.6628V53.5492V53.4353V53.3213V53.2071V53.0926V52.978V52.8632V52.7482V52.633V52.5176V52.4021V52.2863V52.1704V52.0543V51.938V51.8216V51.7049V51.5882V51.4712V51.354V51.2367V51.1193V51.0017V50.8839V50.7659V50.6478V50.5295V50.4111V50.2926V50.1738V50.055V49.936V49.8168V49.6975V49.5781V49.4585V49.3388V49.2189V49.0989V48.9788V48.8585V48.7381V48.6176V48.497V48.3762V48.2553V48.1343V48.0132V47.892V47.7706V47.6491V47.5276V47.4059V47.2841V47.1622V47.0402V46.918V46.7958V46.6735V46.5511V46.4286V46.306V46.1833V46.0605V45.9377V45.8147V45.6916V45.5685V45.4453V45.322V45.1987V45.0752V44.9517V44.8281V44.7044V44.5807V44.4569V44.333V44.2091V44.0851V43.9611V43.837V43.7128V43.5886V43.4643V43.34V43.2156V43.0912V42.9667V42.8422V42.7176V42.593V42.4684V42.3437V42.219V42.0942V41.9695V41.8447V41.7198V41.595V41.4701V41.3451V41.2202V41.0953V40.9703V40.8453V40.7203V40.5953V40.4702V40.3452V40.2201V40.0951V39.97V39.845V39.7199V39.5949V39.4698V39.3448V39.2197V39.0947V38.9697V38.8446V38.7196V38.5947V38.4697V38.3447V38.2198V38.0949V37.97V37.8452V37.7203V37.5955V37.4708V37.346V37.2213V37.0967V36.972V36.8475V36.7229V36.5984V36.474V36.3495V36.2252V36.1009V35.9766V35.8524V35.7283V35.6042V35.4802V35.3562V35.2323V35.1084V34.9847V34.861V34.7373V34.6138V34.4903V34.3668V34.2435V34.1202V33.9971V33.874V33.751V33.628V33.5052V33.3824V33.2598V33.1372V33.0147V32.8924V32.7701V32.6479V32.5258V32.4039V32.282V32.1602V32.0386V31.917V31.7956V31.6743V31.5531V31.432V31.3111V31.1902V31.0695V30.9489V30.8284V30.7081V30.5879V30.4678V30.3479V30.2281V30.1084V29.9888V29.8695V29.7502V29.6311V29.5121V29.3933V29.2747V29.1561V29.0378V28.9196V28.8015V28.6836V28.5659V28.4483V28.3309V28.2137V28.0966V27.9797V27.863V27.7464V27.63V27.5138V27.3978V27.2819V27.1662V27.0507V26.9354V26.8203V26.7054V26.5906V26.4761V26.3617V26.2476V26.1336V26.0198V25.9062V25.7929V25.6797V25.5668V25.454V25.3415V25.2291V25.117V25.0051V24.8934V24.782V24.6707V24.5597V24.4489V24.3383V24.228V24.1178V24.0079V23.8983V23.7889V23.6797V23.5707V23.462V23.3535V23.2453V23.1373V23.0296V22.9221V22.8148V22.7078V22.6011V22.4946V22.3884V22.2824V22.1767V22.0713V21.9661V21.8612V21.7565V21.6522V21.5481V21.4442V21.3407V21.2374V21.1344V21.0316V20.9292V20.827V20.7252V20.6236V20.5223V20.4213V20.3205V20.2201V20.12V20.0202V19.9206V19.8214V19.7225V19.6238V19.5255V19.4275V19.3298V19.2324V19.1353V19.0386V18.9421V18.846V18.7502V18.6547V18.5596V18.4647V18.3702V18.276V18.1822V18.0887V17.9955V17.9026V17.8101V17.718V17.6261V17.5347V17.4435V17.3527V17.2623V17.1722V17.0825V16.9931V16.904V16.8154V16.7271V16.6391V16.5515V16.4643V16.3774V16.2909V16.2048V16.1191V16.0337V15.9487V15.864V15.7798V15.6959V15.6124V15.5293V15.4466V15.3643V15.2823V15.2008V15.1196V15.0389V14.9585V14.8785V14.799V14.7198V14.641V14.5627V14.4847V14.4072V14.33V14.2533V14.177V14.1011V14.0256V13.9506V13.8759V13.8017V13.7279V13.6546V13.5816V13.5091V13.437V13.3654V13.2942V13.2234V13.1531V13.0832V13.0138V12.9447V12.8762V12.8081V12.7404V12.6732V12.6064V12.5401V12.4743V12.4089V12.3439V12.2795V12.2154V12.1519V12.0888V12.0262V11.9641V11.9024V11.8412V11.7805V11.7202V11.6605V11.6012V11.5424V11.4841V11.4263V11.3689V11.3121V11.2557V11.1998V11.1444V11.0896V11.0352V10.9813V10.9279V10.8751V10.8227V10.7708V10.7195V10.6686V10.6183V10.5685V10.5192V10.4704V10.4221V10.3744V10.3272V10.2805V10.2343V10.1887V10.1436V10.099V10.055V10.0115V9.96848V9.92605V9.88416V9.84281V9.80201V9.76175V9.72204V9.68287V9.64426V9.60621V9.5687V9.53176V9.49537V9.45954V9.42427V9.38957V9.35543V9.32186V9.28886V9.25643V9.22457V9.19329V9.16258V9.13245V9.1029V9.07393V9.04554V9.01773V8.99052V8.96389V8.93785V8.9124V8.88755V8.86329V8.83963V8.81657V8.79411V8.77225V8.75099V8.73035V8.7103V8.69087V8.67205V8.65384V8.63625V8.63299L7.36885 8.37135V8.4H7.86885L7.6479 8.13696L7.64794 8.13692L7.05738 55.5ZM6.05738 8.37135V8.4H6.55738C6.05738 8.4 6.05738 8.40011 6.05738 8.40033V8.40133V8.40298V8.40529V8.40826V8.41189V8.41617V8.4211V8.42668V8.43291V8.43978V8.4473V8.45546V8.46427V8.47371V8.48379V8.49451V8.50586V8.51784V8.53045V8.54369V8.55756V8.57206V8.58717V8.60291V8.61927V8.63625V8.65384V8.67205V8.69087V8.7103V8.73035V8.75099V8.77225V8.79411V8.81657V8.83963V8.86329V8.88755V8.9124V8.93785V8.96389V8.99052V9.01773V9.04554V9.07393V9.1029V9.13245V9.16258V9.19329V9.22457V9.25643V9.28886V9.32186V9.35543V9.38957V9.42427V9.45954V9.49537V9.53176V9.5687V9.60621V9.64426V9.68287V9.72204V9.76175V9.80201V9.84281V9.88416V9.92605V9.96848V10.0115V10.055V10.099V10.1436V10.1887V10.2343V10.2805V10.3272V10.3744V10.4221V10.4704V10.5192V10.5685V10.6183V10.6686V10.7195V10.7708V10.8227V10.8751V10.9279V10.9813V11.0352V11.0896V11.1444V11.1998V11.2557V11.3121V11.3689V11.4263V11.4841V11.5424V11.6012V11.6605V11.7202V11.7805V11.8412V11.9024V11.9641V12.0262V12.0888V12.1519V12.2154V12.2795V12.3439V12.4089V12.4743V12.5401V12.6064V12.6732V12.7404V12.8081V12.8762V12.9447V13.0138V13.0832V13.1531V13.2234V13.2942V13.3654V13.437V13.5091V13.5816V13.6546V13.7279V13.8017V13.8759V13.9506V14.0256V14.1011V14.177V14.2533V14.33V14.4072V14.4847V14.5627V14.641V14.7198V14.799V14.8785V14.9585V15.0389V15.1196V15.2008V15.2823V15.3643V15.4466V15.5293V15.6124V15.6959V15.7798V15.864V15.9487V16.0337V16.1191V16.2048V16.2909V16.3774V16.4643V16.5515V16.6391V16.7271V16.8154V16.904V16.9931V17.0825V17.1722V17.2623V17.3527V17.4435V17.5347V17.6261V17.718V17.8101V17.9026V17.9955V18.0887V18.1822V18.276V18.3702V18.4647V18.5596V18.6547V18.7502V18.846V18.9421V19.0386V19.1353V19.2324V19.3298V19.4275V19.5255V19.6238V19.7225V19.8214V19.9206V20.0202V20.12V20.2201V20.3205V20.4213V20.5223V20.6236V20.7252V20.827V20.9292V21.0316V21.1344V21.2374V21.3407V21.4442V21.5481V21.6522V21.7565V21.8612V21.9661V22.0713V22.1767V22.2824V22.3884V22.4946V22.6011V22.7078V22.8148V22.9221V23.0296V23.1373V23.2453V23.3535V23.462V23.5707V23.6797V23.7889V23.8983V24.0079V24.1178V24.228V24.3383V24.4489V24.5597V24.6707V24.782V24.8934V25.0051V25.117V25.2291V25.3415V25.454V25.5668V25.6797V25.7929V25.9062V26.0198V26.1336V26.2476V26.3617V26.4761V26.5906V26.7054V26.8203V26.9354V27.0507V27.1662V27.2819V27.3978V27.5138V27.63V27.7464V27.863V27.9797V28.0966V28.2137V28.3309V28.4483V28.5659V28.6836V28.8015V28.9196V29.0378V29.1561V29.2747V29.3933V29.5121V29.6311V29.7502V29.8695V29.9888V30.1084V30.2281V30.3479V30.4678V30.5879V30.7081V30.8284V30.9489V31.0695V31.1902V31.3111V31.432V31.5531V31.6743V31.7956V31.917V32.0386V32.1602V32.282V32.4039V32.5258V32.6479V32.7701V32.8924V33.0147V33.1372V33.2598V33.3824V33.5052V33.628V33.751V33.874V33.9971V34.1202V34.2435V34.3668V34.4903V34.6138V34.7373V34.861V34.9847V35.1084V35.2323V35.3562V35.4802V35.6042V35.7283V35.8524V35.9766V36.1009V36.2252V36.3495V36.474V36.5984V36.7229V36.8475V36.972V37.0967V37.2213V37.346V37.4708V37.5955V37.7203V37.8452V37.97V38.0949V38.2198V38.3447V38.4697V38.5947V38.7196V38.8446V38.9697V39.0947V39.2197V39.3448V39.4698V39.5949V39.7199V39.845V39.97V40.0951V40.2201V40.3452V40.4702V40.5953V40.7203V40.8453V40.9703V41.0953V41.2202V41.3451V41.4701V41.595V41.7198V41.8447V41.9695V42.0942V42.219V42.3437V42.4684V42.593V42.7176V42.8422V42.9667V43.0912V43.2156V43.34V43.4643V43.5886V43.7128V43.837V43.9611V44.0851V44.2091V44.333V44.4569V44.5807V44.7044V44.8281V44.9517V45.0752V45.1987V45.322V45.4453V45.5685V45.6916V45.8147V45.9377V46.0605V46.1833V46.306V46.4286V46.5511V46.6735V46.7958V46.918V47.0402V47.1622V47.2841V47.4059V47.5276V47.6491V47.7706V47.892V48.0132V48.1343V48.2553V48.3762V48.497V48.6176V48.7381V48.8585V48.9788V49.0989V49.2189V49.3388V49.4585V49.5781V49.6975V49.8168V49.936V50.055V50.1738V8.37135ZM4.7459 8.37135V8.4H5.2459C4.7459 8.4 4.7459 8.40011 4.7459 8.40033V8.40133V8.40298V8.40529V8.40826V8.41189V8.41617V8.4211V8.42668V8.43291V8.43978V8.4473V8.45546V8.46427V8.47371V8.48379V8.49451V8.50586V8.51784V8.53045V8.54369V8.55756V8.57206V8.58717V8.60291V8.61927V8.63625V8.65384V8.67205V8.69087V8.7103V8.73035V8.75099V8.77225V8.79411V8.81657V8.83963V8.86329V8.88755V8.9124V8.93785V8.96389V8.99052V9.01773V9.04554V9.07393V9.1029V9.13245V9.16258V9.19329V9.22457V9.25643V9.28886V9.32186V9.35543V9.38957V9.42427V9.45954V9.49537V9.53176V9.5687V9.60621V9.64426V9.68287V9.72204V9.76175V9.80201V9.84281V9.88416V9.92605V9.96848V10.0115V10.055V10.099V10.1436V10.1887V10.2343V10.2805V10.3272V10.3744V10.4221V10.4704V10.5192V10.5685V10.6183V10.6686V10.7195V10.7708V10.8227V10.8751V10.9279V10.9813V11.0352V11.0896V11.1444V11.1998V11.2557V11.3121V11.3689V11.4263V11.4841V11.5424V11.6012V11.6605V11.7202V11.7805V11.8412V11.9024V11.9641V12.0262V12.0888V12.1519V12.2154V12.2795V12.3439V12.4089V12.4743V12.5401V12.6064V12.6732V12.7404V12.8081V12.8762V12.9447V13.0138V13.0832V13.1531V13.2234V13.2942V13.3654V13.437V13.5091V13.5816V13.6546V13.7279V13.8017V13.8759V13.9506V14.0256V14.1011V14.177V14.2533V14.33V14.4072V14.4847V14.5627V14.641V14.7198V14.799V14.8785V14.9585V15.0389V15.1196V15.2008V15.2823V15.3643V15.4466V15.5293V15.6124V15.6959V15.7798V15.864V15.9487V16.0337V16.1191V16.2048V16.2909V16.3774V16.4643V16.5515V16.6391V16.7271V16.8154V16.904V16.9931V17.0825V17.1722V17.2623V17.3527V17.4435V17.5347V17.6261V17.718V17.8101V17.9026V17.9955V18.0887V18.1822V18.276V18.3702V18.4647V18.5596V18.6547V18.7502V18.846V18.9421V19.0386V19.1353V19.2324V19.3298V19.4275V19.5255V19.6238V19.7225V19.8214V19.9206V20.0202V20.12V20.2201V20.3205V20.4213V20.5223V20.6236V20.7252V20.827V20.9292V21.0316V21.1344V21.2374V21.3407V21.4442V21.5481V21.6522V21.7565V21.8612V21.9661V22.0713V22.1767V22.2824V22.3884V22.4946V22.6011V22.7078V22.8148V22.9221V23.0296V23.1373V23.2453V23.3535V23.462V23.5707V23.6797V23.7889V23.8983V24.0079V24.1178V24.228V24.3383V24.4489V24.5597V24.6707V24.782V24.8934V25.0051V25.117V25.2291V25.3415V25.454V25.5668V25.6797V25.7929V25.9062V26.0198V26.1336V26.2476V26.3617V26.4761V26.5906V26.7054V26.8203V26.9354V27.0507V27.1662V27.2819V27.3978V27.5138V27.63V27.7464V27.863V27.9797V28.0966V28.2137V28.3309V28.4483V28.5659V28.6836V28.8015V28.9196V29.0378V29.1561V29.2747V29.3933V29.5121V29.6311V29.7502V29.8695V29.9888V30.1084V30.2281V30.3479V30.4678V30.5879V30.7081V30.8284V30.9489V31.0695V31.1902V31.3111V31.432V31.5531V31.6743V31.7956V31.917V32.0386V32.1602V32.282V32.4039V32.5258V32.6479V32.7701V32.8924V33.0147V33.1372V33.2598V33.3824V33.5052V33.628V33.751V33.874V33.9971V34.1202V34.2435V34.3668V34.4903V34.6138V34.7373V34.861V34.9847V35.1084V35.2323V35.3562V35.4802V35.6042V35.7283V35.8524V35.9766V36.1009V36.2252V36.3495V36.474V36.5984V36.7229V36.8475V36.972V37.0967V37.2213V37.346V37.4708V37.5955V37.7203V37.8452V37.97V38.0949V38.2198V38.3447V38.4697V38.5947V38.7196V38.8446V38.9697V39.0947V39.2197V39.3448V39.4698V39.5949V39.7199V39.845V39.97V40.0951V40.2201V40.3452V40.4702V40.5953V40.7203V40.8453V40.9703V41.0953V41.2202V41.3451V41.4701V41.595V41.7198V41.8447V41.9695V42.0942V42.219V42.3437V42.4684V42.593V42.7176V42.8422V42.9667V43.0912V43.2156V43.34V43.4643V43.5886V43.7128V43.837V43.9611V44.0851V44.2091V44.333V44.4569V44.5807V44.7044V44.8281V44.9517V45.0752V45.1987V45.322V45.4453V45.5685V45.6916V45.8147V45.9377V46.0605V46.1833V46.306V46.4286V46.5511V46.6735V46.7958V46.918V47.0402V47.1622V47.2841V47.4059V47.5276V47.6491V47.7706V47.892V48.0132V48.1343V48.2553V48.3762V48.497V48.6176V48.7381V48.8585V48.9788V49.0989V49.2189V49.3388V49.4585V49.5781V49.6975V49.8168V49.936V50.055V50.1738V50.2926V50.4111V50.5295V50.6478V50.7659V50.8839V51.0017V51.1193V51.2367V51.354V51.4712V51.5882V51.7049V51.8216V51.938V52.0543V52.1704V52.2863V52.4021V52.5176V52.633V52.7482V52.8632V52.978V53.0926V53.2071V53.3213V53.4353V53.5492V53.6628V53.7762V53.8895V54.0025V54.1153V54.228V54.3404V54.4526V54.5645V54.6763V54.7878V54.8992V55.0103V55.1212V55.2318V55.3423V55.4525V8.37135Z" fill="white" fill-opacity="0.2" stroke="white"/>
</svg>
