<svg width="232" height="280" viewBox="0 0 232 280" fill="none" xmlns="http://www.w3.org/2000/svg">
<path d="M0 14.9928L12.7237 0H33.9298H209.734H232V12.8041V28.8912V242.354V266.32V280H204.087L196.588 272.285H36.472L28.443 280H0V265.883L0 241.478V42.0236V14.9928Z" fill="white"/>
<path fill-rule="evenodd" clip-rule="evenodd" d="M36.472 272.285H196.588L204.087 280H232V0H12.7237L0 14.9928V280H28.443L36.472 272.285ZM28.0404 279L36.0694 271.285H197.011L204.51 279H231V1H13.1866L1 15.3599V279H28.0404Z" fill="white"/>
<path d="M38.9001 275H194.28L199 280H156.5V278C156.5 277.448 156.052 277 155.5 277H153.5C152.948 277 152.5 277.448 152.5 278V280H79.4999V278C79.4999 277.448 79.0522 277 78.4999 277H76.4999C75.9477 277 75.4999 277.448 75.4999 278V280H32.9999L38.9001 275Z" fill="white"/>
</svg>
