<svg width="416" height="72" viewBox="0 0 416 72" fill="none" xmlns="http://www.w3.org/2000/svg">
<path d="M225.655 70.0122C225.94 69.6867 226.351 69.5 226.784 69.5H355.469C355.901 69.5 356.313 69.6867 356.598 70.0122L358.337 72H223.916L225.655 70.0122Z" fill="white"/>
<path d="M222.587 72H14L2.26796e-05 58.6667V2C2.26796e-05 0.895432 0 0.500001 0 0C1 0 276.796 0 276.796 0L280.067 3.20105C280.534 3.65821 281.162 3.91422 281.816 3.91422H410.163C410.565 3.91422 410.95 4.0752 411.231 4.36111L416 9.19794V72C415 72 415.105 72 414 72H359.666L357.35 69.3537C356.876 68.8112 356.19 68.5 355.469 68.5H226.784C226.063 68.5 225.377 68.8112 224.903 69.3537L222.587 72Z" fill="white"/>
<path d="M414 0H278.226L280.767 2.48632C281.047 2.76062 281.424 2.91422 281.816 2.91422H410.163C410.832 2.91422 411.474 3.18251 411.944 3.65905L416 7.77359V2C416 0.895432 415.105 0 414 0Z" fill="white"/>
</svg>
